<?xml version="1.0" standalone="no"?><!DOCTYPE svg PUBLIC "-//W3C//DTD SVG 1.1//EN" "http://www.w3.org/Graphics/SVG/1.1/DTD/svg11.dtd"><svg class="icon" width="200px" height="200.00px" viewBox="0 0 1024 1024" version="1.1" xmlns="http://www.w3.org/2000/svg"><path d="M531.0464 771.3792h-21.504c-130.56 0-236.8512-105.2672-236.8512-234.7008v-302.08C272.6912 105.2672 378.9824 0 509.5424 0h21.504c130.56 0 236.8512 105.2672 236.8512 234.7008v302.08c0 129.3312-106.1888 234.5984-236.8512 234.5984z m-21.504-707.3792c-95.0272 0-172.2368 76.5952-172.2368 170.7008v302.08c0 94.1056 77.312 170.7008 172.2368 170.7008h21.504c95.0272 0 172.2368-76.5952 172.2368-170.7008v-302.08c0-94.1056-77.312-170.7008-172.2368-170.7008h-21.504zM681.7792 1024H358.8096c-17.8176 0-32.256-14.336-32.256-32.0512s14.4384-32.0512 32.256-32.0512h322.9696c17.8176 0 32.256 14.336 32.256 32.0512S699.5968 1024 681.7792 1024zM520.2944 911.9744c-231.5264 0-419.84-193.8432-419.84-432.0256 0-17.7152 14.4384-32.0512 32.256-32.0512s32.256 14.336 32.256 32.0512c0 202.9568 159.3344 368.0256 355.2256 368.0256 195.8912 0 355.2256-165.0688 355.2256-368.0256 0-17.7152 14.4384-32.0512 32.256-32.0512s32.256 14.336 32.256 32.0512c0.2048 238.2848-188.1088 432.0256-419.6352 432.0256z" /></svg>